<svg width="148" height="70" viewBox="0 0 148 70" fill="none" xmlns="http://www.w3.org/2000/svg">
<path d="M14.1562 43.9688V69H0.984375V0.75H24.3281C28.0469 0.75 31.4062 1.29688 34.4062 2.39062C37.4062 3.45312 39.9688 4.9375 42.0938 6.84375C44.1875 8.78125 45.7969 11.0938 46.9219 13.7812C48.0781 16.4688 48.6562 19.4531 48.6562 22.7344C48.6562 25.7969 48.0781 28.625 46.9219 31.2188C45.7969 33.8125 44.1875 36.0469 42.0938 37.9219C39.9688 39.8281 37.4062 41.3125 34.4062 42.375C31.4062 43.4375 28.0469 43.9688 24.3281 43.9688H14.1562ZM14.1562 33.2812H24.3281C26.2031 33.2812 27.8281 33 29.2031 32.4375C30.5781 31.875 31.7344 31.1094 32.6719 30.1406C33.5781 29.1719 34.25 28.0625 34.6875 26.8125C35.1562 25.5312 35.3906 24.2031 35.3906 22.8281C35.3906 21.2344 35.1562 19.75 34.6875 18.375C34.25 17 33.5781 15.7969 32.6719 14.7656C31.7344 13.7344 30.5781 12.9219 29.2031 12.3281C27.8281 11.7344 26.2031 11.4375 24.3281 11.4375H14.1562V33.2812ZM73.9688 0.75L80.4375 26.3906L87.7969 0.75H104.156V69H92.0625V48.7969L92.625 16.875L83.6719 46.5H77.1562L69.1406 18.1406L69.7031 48.7969V69H57.6094V0.75H73.9688Z" fill="black"/>
<path d="M129.094 61.4531C129.094 59.0469 129.891 57.0156 131.484 55.3594C133.078 53.6719 135.297 52.8281 138.141 52.8281C140.953 52.8281 143.156 53.6562 144.75 55.3125C146.375 56.9688 147.188 59.0156 147.188 61.4531C147.188 63.8906 146.359 65.9219 144.703 67.5469C143.078 69.1406 140.891 69.9375 138.141 69.9375C135.359 69.9375 133.156 69.125 131.531 67.5C129.906 65.875 129.094 63.8594 129.094 61.4531Z" fill="#E44D26"/>
</svg>
